<svg version="1.2" baseProfile="tiny-ps" xmlns="http://www.w3.org/2000/svg" viewBox="0 0 489 489" width="489" height="489">
	<title>Layer</title>
	<style>
		tspan { white-space:pre }
		.shp0 { opacity: 0.702;fill: #000000 } 
	</style>
	<g id="Layer">
		<g id="Layer">
			<path id="Layer" fill-rule="evenodd" class="shp0" d="M0 161.7L0 43C0 19.3 19.3 0 43 0L161.8 0C185.5 0 204.8 19.3 204.8 43L204.8 161.8C204.8 185.5 185.5 204.8 161.8 204.8L43 204.8C19.3 204.8 0 185.5 0 161.7ZM24.5 161.7C24.5 171.9 32.8 180.2 43 180.2L161.8 180.2C172 180.2 180.3 171.9 180.3 161.7L180.3 43C180.3 32.8 172 24.5 161.8 24.5L43 24.5C32.8 24.5 24.5 32.8 24.5 43L24.5 161.7Z" />
			<path id="Layer" fill-rule="evenodd" class="shp0" d="M346.8 175.4C346.8 191.7 333.5 204.9 317.3 204.9L250.9 204.9C234.6 204.9 221.4 191.6 221.4 175.4L221.4 109C221.4 92.8 234.7 79.6 250.9 79.6L317.3 79.6C333.6 79.6 346.8 92.8 346.8 109L346.8 175.4ZM322.3 108.9C322.3 106.2 320 104 317.3 104L250.9 104C248.1 104 245.9 106.2 245.9 108.9L245.9 175.3C245.9 178.1 248.2 180.3 250.9 180.3L317.3 180.3C320.1 180.3 322.3 178 322.3 175.3L322.3 108.9Z" />
			<path id="Layer" fill-rule="evenodd" class="shp0" d="M488.8 109L488.8 175.4C488.8 191.7 475.6 204.9 459.4 204.9L393 204.9C376.7 204.9 363.5 191.6 363.5 175.4L363.5 109C363.5 92.8 376.8 79.6 393 79.6L459.4 79.6C475.6 79.6 488.8 92.8 488.8 109ZM464.3 175.3L464.3 108.9C464.3 106.2 462.1 104 459.4 104L393 104C390.2 104 388 106.2 388 108.9L388 175.3C388 178.1 390.3 180.3 393 180.3L459.4 180.3C462.1 180.3 464.3 178 464.3 175.3Z" />
			<path id="Layer" fill-rule="evenodd" class="shp0" d="M346.8 317.4C346.8 333.7 333.5 346.9 317.3 346.9L250.9 346.9C234.6 346.9 221.4 333.6 221.4 317.4L221.4 251C221.4 234.8 234.7 221.6 250.9 221.6L317.3 221.6C333.6 221.6 346.8 234.8 346.8 251L346.8 317.4ZM322.3 250.9C322.3 248.2 320 246 317.3 246L250.9 246C248.1 246 245.9 248.2 245.9 250.9L245.9 317.3C245.9 320.1 248.2 322.3 250.9 322.3L317.3 322.3C320.1 322.3 322.3 320 322.3 317.3L322.3 250.9Z" />
			<path id="Layer" fill-rule="evenodd" class="shp0" d="M488.8 251L488.8 317.4C488.8 333.7 475.6 346.9 459.4 346.9L393 346.9C376.7 346.9 363.5 333.6 363.5 317.4L363.5 251C363.5 234.8 376.8 221.6 393 221.6L459.4 221.6C475.6 221.6 488.8 234.8 488.8 251ZM464.3 317.3L464.3 250.9C464.3 248.2 462.1 246 459.4 246L393 246C390.2 246 388 248.2 388 250.9L388 317.3C388 320.1 390.3 322.3 393 322.3L459.4 322.3C462.1 322.3 464.3 320 464.3 317.3Z" />
			<path id="Layer" fill-rule="evenodd" class="shp0" d="M175.4 221.5C191.7 221.5 204.9 234.7 204.9 250.9L204.9 317.3C204.9 333.6 191.6 346.8 175.4 346.8L109 346.8C92.7 346.8 79.5 333.5 79.5 317.3L79.5 250.9C79.5 234.7 92.8 221.5 109 221.5L175.4 221.5ZM175.3 246.1L108.9 246.1C106.1 246.1 103.9 248.3 103.9 251L103.9 317.4C103.9 320.2 106.2 322.4 108.9 322.4L175.3 322.4C178.1 322.4 180.3 320.1 180.3 317.4L180.3 251C180.3 248.2 178.1 246 175.3 246.1Z" />
			<path id="Layer" fill-rule="evenodd" class="shp0" d="M346.8 393L346.8 459.4C346.8 475.6 333.5 488.8 317.3 488.8L250.9 488.8C234.6 488.8 221.4 475.6 221.4 459.4L221.4 393C221.4 376.7 234.7 363.5 250.9 363.5L317.3 363.5C333.6 363.5 346.8 376.7 346.8 393ZM322.3 393C322.3 390.2 320 388 317.3 388L250.9 388C248.1 388 245.9 390.3 245.9 393L245.9 459.4C245.9 462.1 248.2 464.3 250.9 464.3L317.3 464.3C320.1 464.3 322.3 462.1 322.3 459.4L322.3 393Z" />
			<path id="Layer" fill-rule="evenodd" class="shp0" d="M488.8 393L488.8 459.4C488.8 475.6 475.6 488.8 459.4 488.8L393 488.8C376.7 488.8 363.5 475.6 363.5 459.4L363.5 393C363.5 376.7 376.8 363.5 393 363.5L459.4 363.5C475.6 363.5 488.8 376.7 488.8 393ZM464.3 459.4L464.3 393C464.3 390.2 462.1 388 459.4 388L393 388C390.2 388 388 390.3 388 393L388 459.4C388 462.1 390.3 464.3 393 464.3L459.4 464.3C462.1 464.3 464.3 462.1 464.3 459.4Z" />
			<path id="Layer" fill-rule="evenodd" class="shp0" d="M79.5 459.4L79.5 393C79.5 376.7 92.8 363.5 109 363.5L175.4 363.5C191.7 363.5 204.9 376.8 204.9 393L204.9 459.4C204.9 475.6 191.6 488.8 175.4 488.8L109 488.8C92.7 488.8 79.5 475.6 79.5 459.4ZM104 459.4C104 462.1 106.3 464.3 109 464.3L175.4 464.3C178.2 464.3 180.4 462.1 180.4 459.4L180.4 393C180.4 390.2 178.1 388 175.4 388L109 388C106.2 388 104 390.3 104 393L104 459.4Z" />
		</g>
	</g>
</svg>