<svg version="1.2" baseProfile="tiny-ps" xmlns="http://www.w3.org/2000/svg" viewBox="0 0 297 297" width="40" height="40">
	<title>menu-svgrepo-com (1)-svg</title>
	<style>
		tspan { white-space:pre }
		.shp0 { opacity: 0.749;fill: #000000 } 
	</style>
	<g id="Layer">
		<g id="Layer">
			<g id="Layer">
				<path id="Layer" class="shp0" d="M280.21 39.21L16.79 39.21C7.53 39.21 0 46.74 0 56L0 80.33C0 89.59 7.53 97.12 16.79 97.12L280.21 97.12C289.47 97.12 297 89.59 297 80.33L297 56C297 46.74 289.47 39.21 280.21 39.21Z" />
				<path id="Layer" class="shp0" d="M280.21 119.55L16.79 119.55C7.53 119.55 0 127.08 0 136.33L0 160.67C0 169.92 7.53 177.45 16.79 177.45L280.21 177.45C289.47 177.45 297 169.92 297 160.67L297 136.33C297 127.08 289.47 119.55 280.21 119.55Z" />
				<path id="Layer" class="shp0" d="M280.21 199.88L16.79 199.88C7.53 199.88 0 207.41 0 216.67L0 241C0 250.26 7.53 257.79 16.79 257.79L280.21 257.79C289.47 257.79 297 250.26 297 241L297 216.67C297 207.41 289.47 199.88 280.21 199.88Z" />
			</g>
		</g>
	</g>
	<g id="Layer">
	</g>
	<g id="Layer">
	</g>
	<g id="Layer">
	</g>
	<g id="Layer">
	</g>
	<g id="Layer">
	</g>
	<g id="Layer">
	</g>
	<g id="Layer">
	</g>
	<g id="Layer">
	</g>
	<g id="Layer">
	</g>
	<g id="Layer">
	</g>
	<g id="Layer">
	</g>
	<g id="Layer">
	</g>
	<g id="Layer">
	</g>
	<g id="Layer">
	</g>
	<g id="Layer" style="fill-opacity: 0.561">
	</g>
</svg>