<svg version="1.2" baseProfile="tiny-ps" xmlns="http://www.w3.org/2000/svg" viewBox="0 0 51 53" width="51" height="53">
	<title>Layer</title>
	<style>
		tspan { white-space:pre }
		.shp0 { opacity: 0.78;fill: #000000 } 
	</style>
	<path id="Layer" fill-rule="evenodd" class="shp0" d="M50.68 52.69C50.48 52.87 50.23 52.97 49.98 52.97C49.72 52.97 49.46 52.86 49.26 52.66L34.37 37.17C30.73 40.18 26.07 42 20.98 42C9.4 42 -0.02 32.58 -0.02 21C-0.02 9.42 9.4 0 20.98 0C32.56 0 41.98 9.42 41.98 21C41.98 26.78 39.63 32.02 35.84 35.82L50.7 51.27C51.09 51.67 51.07 52.3 50.68 52.69ZM39.98 21C39.98 10.52 31.46 2 20.98 2C10.51 2 1.98 10.52 1.98 21C1.98 31.48 10.51 40 20.98 40C31.46 40 39.98 31.48 39.98 21Z" />
</svg>